<svg xmlns="http://www.w3.org/2000/svg" viewBox="0 0 300 208" role="img" aria-label="ModelManager.jl">
  <title>ModelManager.jl</title>
  <g transform="translate(70,4)">
  <path d="M 125.43 98.88 L 112.34 100.20 L 112.34 100.20 L 120.99 104.35 L 112.53 109.01 L 99.98 107.00 L 100.88 112.39 L 87.20 114.17 L 80.00 109.60 L 72.80 114.17 L 59.12 112.39 L 60.02 107.00 L 47.47 109.01 L 39.01 104.35 L 47.66 100.20 L 34.57 98.88 L 34.57 118.88 L 47.66 120.20 L 39.01 124.35 L 47.47 129.01 L 60.02 127.00 L 59.12 132.39 L 72.80 134.17 L 80.00 129.60 L 87.20 134.17 L 100.88 132.39 L 99.98 127.00 L 112.53 129.01 L 120.99 124.35 L 112.34 120.20 L 112.34 120.20 L 125.43 118.88 Z" fill="#6b3f80" stroke="#4a2c59" stroke-width="1.4" stroke-linejoin="round"/>
  <path d="M 112.34 100.20 L 120.99 104.35 L 112.53 109.01 L 99.98 107.00 L 100.88 112.39 L 87.20 114.17 L 80.00 109.60 L 72.80 114.17 L 59.12 112.39 L 60.02 107.00 L 47.47 109.01 L 39.01 104.35 L 47.66 100.20 L 34.57 98.88 L 34.57 93.12 L 47.66 91.80 L 39.01 87.65 L 47.47 82.99 L 60.02 85.00 L 59.12 79.61 L 72.80 77.83 L 80.00 82.40 L 87.20 77.83 L 100.88 79.61 L 99.98 85.00 L 112.53 82.99 L 120.99 87.65 L 112.34 91.80 L 125.43 93.12 L 125.43 98.88 L 112.34 100.20 Z" fill="#9558B2" stroke="#4a2c59" stroke-width="1.4" stroke-linejoin="round"/>
  <ellipse cx="80" cy="96" rx="13.60" ry="5.44" fill="#77468e" stroke="#4a2c59" stroke-width="1.10"/>
  <path d="M 125.43 72.88 L 112.34 74.20 L 112.34 74.20 L 120.99 78.35 L 112.53 83.01 L 99.98 81.00 L 100.88 86.39 L 87.20 88.17 L 80.00 83.60 L 72.80 88.17 L 59.12 86.39 L 60.02 81.00 L 47.47 83.01 L 39.01 78.35 L 47.66 74.20 L 34.57 72.88 L 34.57 92.88 L 47.66 94.20 L 39.01 98.35 L 47.47 103.01 L 60.02 101.00 L 59.12 106.39 L 72.80 108.17 L 80.00 103.60 L 87.20 108.17 L 100.88 106.39 L 99.98 101.00 L 112.53 103.01 L 120.99 98.35 L 112.34 94.20 L 112.34 94.20 L 125.43 92.88 Z" fill="#922b24" stroke="#651e19" stroke-width="1.4" stroke-linejoin="round"/>
  <path d="M 112.34 74.20 L 120.99 78.35 L 112.53 83.01 L 99.98 81.00 L 100.88 86.39 L 87.20 88.17 L 80.00 83.60 L 72.80 88.17 L 59.12 86.39 L 60.02 81.00 L 47.47 83.01 L 39.01 78.35 L 47.66 74.20 L 34.57 72.88 L 34.57 67.12 L 47.66 65.80 L 39.01 61.65 L 47.47 56.99 L 60.02 59.00 L 59.12 53.61 L 72.80 51.83 L 80.00 56.40 L 87.20 51.83 L 100.88 53.61 L 99.98 59.00 L 112.53 56.99 L 120.99 61.65 L 112.34 65.80 L 125.43 67.12 L 125.43 72.88 L 112.34 74.20 Z" fill="#CB3C33" stroke="#651e19" stroke-width="1.4" stroke-linejoin="round"/>
  <ellipse cx="80" cy="70" rx="13.60" ry="5.44" fill="#a23028" stroke="#651e19" stroke-width="1.10"/>
  <path d="M 125.43 46.88 L 112.34 48.20 L 112.34 48.20 L 120.99 52.35 L 112.53 57.01 L 99.98 55.00 L 100.88 60.39 L 87.20 62.17 L 80.00 57.60 L 72.80 62.17 L 59.12 60.39 L 60.02 55.00 L 47.47 57.01 L 39.01 52.35 L 47.66 48.20 L 34.57 46.88 L 34.57 66.88 L 47.66 68.20 L 39.01 72.35 L 47.47 77.01 L 60.02 75.00 L 59.12 80.39 L 72.80 82.17 L 80.00 77.60 L 87.20 82.17 L 100.88 80.39 L 99.98 75.00 L 112.53 77.01 L 120.99 72.35 L 112.34 68.20 L 112.34 68.20 L 125.43 66.88 Z" fill="#286d1b" stroke="#1c4c13" stroke-width="1.4" stroke-linejoin="round"/>
  <path d="M 112.34 48.20 L 120.99 52.35 L 112.53 57.01 L 99.98 55.00 L 100.88 60.39 L 87.20 62.17 L 80.00 57.60 L 72.80 62.17 L 59.12 60.39 L 60.02 55.00 L 47.47 57.01 L 39.01 52.35 L 47.66 48.20 L 34.57 46.88 L 34.57 41.12 L 47.66 39.80 L 39.01 35.65 L 47.47 30.99 L 60.02 33.00 L 59.12 27.61 L 72.80 25.83 L 80.00 30.40 L 87.20 25.83 L 100.88 27.61 L 99.98 33.00 L 112.53 30.99 L 120.99 35.65 L 112.34 39.80 L 125.43 41.12 L 125.43 46.88 L 112.34 48.20 Z" fill="#389826" stroke="#1c4c13" stroke-width="1.4" stroke-linejoin="round"/>
  <ellipse cx="80" cy="44" rx="13.60" ry="5.44" fill="#2c791e" stroke="#1c4c13" stroke-width="1.10"/>
  </g>
  <text x="150" y="178" text-anchor="middle" font-family="Helvetica, Arial, sans-serif" font-size="30" font-weight="bold" fill="#3c5ecd">Model<tspan fill="#864fa0">Manager</tspan></text>
  <text x="150" y="199" text-anchor="middle" font-family="Helvetica, Arial, sans-serif" font-size="15" fill="#888">simulator-agnostic ABM infrastructure</text>
</svg>
